<?xml version="1.0" encoding="UTF-8"?>
<svg width="40px" height="40px" viewBox="0 0 40 40" version="1.1" xmlns="http://www.w3.org/2000/svg" xmlns:xlink="http://www.w3.org/1999/xlink">
    <title>events_navy</title>
    <g id="events_navy" stroke="none" stroke-width="1" fill="none" fill-rule="evenodd">
        <circle id="Oval" fill="#003C71" cx="20" cy="20" r="20"></circle>
        <path d="M32.0357143,11 L32.0357143,24.7417143 L34.9285714,24.7417143 L34.9285714,28.3571429 L6,28.3571429 L6,24.7417143 L8.89285714,24.7417143 L8.89285714,11 L32.0357143,11 Z M33.4821429,26.1881429 L7.44642857,26.1881429 L7.44642857,26.9107143 L33.4821429,26.9107143 L33.4821429,26.1881429 Z M30.5892857,12.4464286 L10.3392857,12.4464286 L10.3392857,24.7417143 L30.5892857,24.7417143 L30.5892857,12.4464286 Z M29.1428571,13.169 L29.1428571,24.0178571 L11.7857143,24.0178571 L11.7857143,13.169 L29.1428571,13.169 Z M27.6964286,14.6154286 L13.2321429,14.6154286 L13.2321429,22.5701429 L27.6964286,22.5701429 L27.6964286,14.6154286 Z M21.0928714,14.9944571 L25.1043,16.3676 L24.2930143,17.1801714 L25.3151571,18.2023143 L24.2917286,19.2257429 L23.2695857,18.2036 L22.4531571,19.0187429 L21.0928714,14.9944571 Z" id="Combined-Shape" fill="#FFFFFF"></path>
    </g>
</svg>