<?xml version="1.0" encoding="UTF-8"?>
<svg width="40px" height="40px" viewBox="0 0 40 40" version="1.1" xmlns="http://www.w3.org/2000/svg" xmlns:xlink="http://www.w3.org/1999/xlink">
    <title>community_navy</title>
    <g id="community_navy" stroke="none" stroke-width="1" fill="none" fill-rule="evenodd">
        <circle id="Oval" fill="#003C71" cx="20" cy="20" r="20"></circle>
        <path d="M19.6,28.2 C21.0616222,28.2 22.25,29.3895556 22.25,30.85 L22.25,33.5 L16.95,33.5 L16.95,30.85 C16.95,29.3895556 18.1383778,28.2 19.6,28.2 Z M19.6,29.525 C18.8697778,29.525 18.275,30.1197778 18.275,30.85 L18.275,32.175 L20.925,32.175 L20.925,30.85 C20.925,30.1197778 20.3302222,29.525 19.6,29.525 Z M27.55,25.55 C29.0116222,25.55 30.2,26.7395556 30.2,28.2 L30.2,30.85 L24.9,30.85 L24.9,28.2 C24.9,26.7395556 26.0883778,25.55 27.55,25.55 Z M11.65,25.55 C13.1116222,25.55 14.3,26.7395556 14.3,28.2 L14.3,30.85 L9,30.85 L9,28.2 C9,26.7395556 10.1883778,25.55 11.65,25.55 Z M27.55,26.875 C26.8197778,26.875 26.225,27.4697778 26.225,28.2 L26.225,29.525 L28.875,29.525 L28.875,28.2 C28.875,27.4697778 28.2802222,26.875 27.55,26.875 Z M11.65,26.875 C10.9197778,26.875 10.325,27.4697778 10.325,28.2 L10.325,29.525 L12.975,29.525 L12.975,28.2 C12.975,27.4697778 12.3802222,26.875 11.65,26.875 Z M19.6,23.5625 C20.6965111,23.5625 21.5869111,24.4540778 21.5869111,25.5494111 C21.5869111,26.6459222 20.6965111,27.5375 19.6,27.5375 C18.5034889,27.5375 17.6130889,26.6459222 17.6130889,25.5494111 C17.6130889,24.4540778 18.5034889,23.5625 19.6,23.5625 Z M19.6,24.8875 C19.2348889,24.8875 18.9380889,25.1843 18.9380889,25.5494111 C18.9380889,25.9157 19.2348889,26.2125 19.6,26.2125 C19.9651111,26.2125 20.2619111,25.9157 20.2619111,25.5494111 C20.2619111,25.1843 19.9651111,24.8875 19.6,24.8875 Z M27.55,20.9125 C28.6465111,20.9125 29.5369111,21.8040778 29.5369111,22.8994111 C29.5369111,23.9959222 28.6465111,24.8875 27.55,24.8875 C26.4534889,24.8875 25.5630889,23.9959222 25.5630889,22.8994111 C25.5630889,21.8040778 26.4534889,20.9125 27.55,20.9125 Z M11.65,20.9125 C12.7465111,20.9125 13.6369111,21.8040778 13.6369111,22.8994111 C13.6369111,23.9959222 12.7465111,24.8875 11.65,24.8875 C10.5534889,24.8875 9.66308889,23.9959222 9.66308889,22.8994111 C9.66308889,21.8040778 10.5534889,20.9125 11.65,20.9125 Z M27.55,22.2375 C27.1848889,22.2375 26.8880889,22.5343 26.8880889,22.8994111 C26.8880889,23.2657 27.1848889,23.5625 27.55,23.5625 C27.9151111,23.5625 28.2119111,23.2657 28.2119111,22.8994111 C28.2119111,22.5343 27.9151111,22.2375 27.55,22.2375 Z M11.65,22.2375 C11.2848889,22.2375 10.9880889,22.5343 10.9880889,22.8994111 C10.9880889,23.2657 11.2848889,23.5625 11.65,23.5625 C12.0151111,23.5625 12.3119111,23.2657 12.3119111,22.8994111 C12.3119111,22.5343 12.0151111,22.2375 11.65,22.2375 Z M27.55,14.2875 C29.0116222,14.2875 30.2,15.4758778 30.2,16.9375 L30.2,19.5875 L24.9,19.5875 L24.9,16.9375 C24.9,15.4758778 26.0883778,14.2875 27.55,14.2875 Z M11.65,14.2875 C13.1116222,14.2875 14.3,15.4758778 14.3,16.9375 L14.3,19.5875 L9,19.5875 L9,16.9375 C9,15.4758778 10.1883778,14.2875 11.65,14.2875 Z M27.55,15.6125 C26.8197778,15.6125 26.225,16.2072778 26.225,16.9375 L26.225,18.2625 L28.875,18.2625 L28.875,16.9375 C28.875,16.2072778 28.2802222,15.6125 27.55,15.6125 Z M11.65,15.6125 C10.9197778,15.6125 10.325,16.2072778 10.325,16.9375 L10.325,18.2625 L12.975,18.2625 L12.975,16.9375 C12.975,16.2072778 12.3802222,15.6125 11.65,15.6125 Z M19.6,11.6375 C21.0616222,11.6375 22.25,12.8258778 22.25,14.2875 L22.25,16.9375 L16.95,16.9375 L16.95,14.2875 C16.95,12.8258778 18.1383778,11.6375 19.6,11.6375 Z M19.6,12.9625 C18.8697778,12.9625 18.275,13.5572778 18.275,14.2875 L18.275,15.6125 L20.925,15.6125 L20.925,14.2875 C20.925,13.5572778 20.3302222,12.9625 19.6,12.9625 Z M27.55,9.65 C28.6465111,9.65 29.5369111,10.5415778 29.5369111,11.6369111 C29.5369111,12.7334222 28.6465111,13.625 27.55,13.625 C26.4534889,13.625 25.5630889,12.7334222 25.5630889,11.6369111 C25.5630889,10.5415778 26.4534889,9.65 27.55,9.65 Z M11.65,9.65 C12.7465111,9.65 13.6369111,10.5415778 13.6369111,11.6369111 C13.6369111,12.7334222 12.7465111,13.625 11.65,13.625 C10.5534889,13.625 9.66308889,12.7334222 9.66308889,11.6369111 C9.66308889,10.5415778 10.5534889,9.65 11.65,9.65 Z M27.55,10.975 C27.1848889,10.975 26.8880889,11.2718 26.8880889,11.6369111 C26.8880889,12.0032 27.1848889,12.3 27.55,12.3 C27.9151111,12.3 28.2119111,12.0032 28.2119111,11.6369111 C28.2119111,11.2718 27.9151111,10.975 27.55,10.975 Z M11.65,10.975 C11.2848889,10.975 10.9880889,11.2718 10.9880889,11.6369111 C10.9880889,12.0032 11.2848889,12.3 11.65,12.3 C12.0151111,12.3 12.3119111,12.0032 12.3119111,11.6369111 C12.3119111,11.2718 12.0151111,10.975 11.65,10.975 Z M19.6,7 C20.6965111,7 21.5869111,7.89157778 21.5869111,8.98691111 C21.5869111,10.0834222 20.6965111,10.975 19.6,10.975 C18.5034889,10.975 17.6130889,10.0834222 17.6130889,8.98691111 C17.6130889,7.89157778 18.5034889,7 19.6,7 Z M19.6,8.325 C19.2348889,8.325 18.9380889,8.6218 18.9380889,8.98691111 C18.9380889,9.3532 19.2348889,9.65 19.6,9.65 C19.9651111,9.65 20.2619111,9.3532 20.2619111,8.98691111 C20.2619111,8.6218 19.9651111,8.325 19.6,8.325 Z" id="Combined-Shape" fill="#FFFFFF"></path>
    </g>
</svg>