<?xml version="1.0" encoding="UTF-8"?>
<svg width="40px" height="40px" viewBox="0 0 40 40" version="1.1" xmlns="http://www.w3.org/2000/svg" xmlns:xlink="http://www.w3.org/1999/xlink">
    <title>blog_navy</title>
    <g id="blog_navy" stroke="none" stroke-width="1" fill="none" fill-rule="evenodd">
        <circle id="Oval" fill="#003C71" cx="20" cy="20" r="20"></circle>
        <path d="M7,9 L7,18.7163515 L9.08145841,18.7163515 L9.08145841,22.4733407 L12.8396815,18.7163515 L13.9402511,18.7163515 L13.9402511,26.3512446 L16.0217095,26.3512446 L16.0217095,30.107 L19.7799325,26.3512446 L33.3729541,26.3512446 L33.3729541,13.1641506 L22.2685523,13.1641506 L22.2685523,9 L7,9 Z M8.38805021,10.3880502 L20.8805021,10.3880502 L20.8805021,13.1641506 L13.9402511,13.1641506 L13.9402511,17.3283013 L12.2585511,17.3283013 L10.4707424,19.1198114 L10.4707424,18.0217095 L10.4707424,17.3283013 L8.38805021,17.3283013 L8.38805021,10.3880502 Z M15.3283013,18.7163515 L22.2685523,18.7163515 L22.2685523,14.5522009 L31.9849038,14.5522009 L31.9849038,24.9631944 L19.1988022,24.9631944 L17.4109935,26.7534707 L17.4109935,25.6566026 L17.4109935,24.9631944 L15.3283013,24.9631944 L15.3283013,18.7163515 Z M15.3283013,17.3283013 L20.8805021,17.3283013 L20.8805021,14.5522009 L15.3283013,14.5522009 L15.3283013,17.3283013 Z" id="Fill-1" fill="#FEFEFE"></path>
    </g>
</svg>