<?xml version="1.0" encoding="utf-8"?>
<!-- Generator: Adobe Illustrator 20.1.0, SVG Export Plug-In . SVG Version: 6.00 Build 0)  -->
<svg version="1.1" id="Layer_2" xmlns="http://www.w3.org/2000/svg" xmlns:xlink="http://www.w3.org/1999/xlink" x="0px" y="0px"
	 viewBox="0 0 563.9 311.9" style="enable-background:new 0 0 563.9 311.9;" xml:space="preserve">
<style type="text/css">
	.st0{fill:#55565A;}
	.st1{fill:#F57F29;}
	.st2{fill:#FFFFFF;stroke:#FFFFFF;stroke-width:0.425;stroke-miterlimit:10;}
	.st3{fill:#656766;}
</style>
<g>
	<path class="st0" d="M293.3,143.8h7.6v-31.3l13.7,20.5h0.3l13.8-20.7v31.4h7.7V99.9h-8.2l-13.3,20.7l-13.3-20.7h-8.2V143.8z
		 M265.7,144.5c11.5,0,18.9-6.6,18.9-19.7V99.9h-7.7v25.2c0,8.1-4.2,12.2-11,12.2c-6.9,0-11.1-4.4-11.1-12.5V99.9h-7.7v25.2
		C247.1,137.9,254.3,144.5,265.7,144.5 M218.6,143.8h7.8v-36.7h13.9v-7.1h-35.6v7.1h13.9V143.8z M174.3,122.7V107h9
		c5.8,0,9.5,2.7,9.5,7.8v0.1c0,4.6-3.6,7.8-9.5,7.8H174.3z M166.6,143.8h7.7v-14.1h8.7c9.6,0,17.5-5.1,17.5-15v-0.1
		c0-8.8-6.5-14.7-16.7-14.7h-17.3V143.8z M136.3,137.5c-8.7,0-14.9-7.1-14.9-15.6v-0.1c0-8.5,6.1-15.5,14.8-15.5s14.9,7.1,14.9,15.6
		v0.1C151,130.5,145,137.5,136.3,137.5 M136.1,144.5c13.5,0,23-10.3,23-22.7v-0.1c0-12.3-9.4-22.5-22.9-22.5
		c-13.5,0-23,10.3-23,22.7v0.1C113.3,134.3,122.7,144.5,136.1,144.5"/>
	<rect x="352.1" y="88.8" class="st1" width="72.4" height="66.3"/>
	<path class="st2" d="M398.9,128.4H394l6.8,7.3c-1.8,1.1-3.9,1.8-6.5,1.8c-9.1,0-13.2-8.5-13.2-16.7c0-8.2,4.1-16.7,13.2-16.7
		c9.1,0,13.2,8.5,13.2,16.7c0,4.6-1.3,9.3-4,12.5L398.9,128.4z M406.2,136.2c3.4-3.5,5.2-8.9,5.2-15.4c0.1-10.5-5.4-20-17-20
		c-11.6,0-17.1,9.5-17,20c0.1,11.9,5.9,20,17,20c3.6,0,6.6-0.9,9.1-2.4l4.8,5.2h4.8L406.2,136.2z M366.3,140.1h3.8v-38.7h-3.8V140.1
		z"/>
	<g>
		<path class="st0" d="M432.1,89.8h-2.4v-1h5.9v1h-2.4v6.7h-1.1V89.8z"/>
		<path class="st0" d="M436.7,88.8h1.8l2.4,6.4l2.4-6.4h1.8v7.7H444v-6.6h0l-2.5,6.6h-1.1l-2.5-6.6h0v6.6h-1.1V88.8z"/>
	</g>
</g>
<g>
	<path class="st3" d="M289.1,195.5c1.5,1,3.3,1.5,5.8,1.5c3.5,0,5.9-1.9,5.9-5.3c0-2.2-2-3.6-5-5.2c-3.7-2-7-3.9-7-7.5
		c0-4.3,3.8-6.8,8.3-6.8c1.7,0,3.7,0.3,5.1,0.9l-0.4,2.4c-1.2-0.6-3-1-4.7-1c-2.9,0-5.6,1.3-5.6,4.5c0,2.2,2.1,3.5,5.3,5.2
		c3.2,1.6,6.7,3.6,6.7,7.7c0,5-4.1,7.4-8.6,7.4c-2.4,0-4.4-0.5-5.9-1.1L289.1,195.5z"/>
	<path class="st3" d="M317.1,198.9V175h-7.7v-2.2h18v2.2h-7.7v23.8H317.1z"/>
	<path class="st3" d="M350.8,172.8h2.6v17.1c0,7-5,9.5-9.5,9.5c-4.4,0-9.5-2.4-9.5-9.5v-17h2.6v17.1c0,3.9,2.2,7.2,6.9,7.2
		c4.1,0,6.9-2.6,6.9-7.3V172.8z"/>
	<path class="st3" d="M363.1,198.9v-26.1h6.5c8.2,0,13,4.3,13,13c0,8.3-4.9,13.1-14.9,13.1H363.1z M367.8,196.6
		c8,0,12.2-3.5,12.2-11c0-7.1-3.8-10.6-10.6-10.6h-3.8v21.6H367.8z"/>
	<path class="st3" d="M391.6,198.9v-26.1h2.6v26.1H391.6z"/>
	<path class="st3" d="M402.8,185.6c0-7.7,4.3-13.3,11.4-13.3c7.7,0,11.5,6.1,11.5,13.3c0,8.1-3.9,13.7-11.5,13.7
		C406.8,199.3,402.8,193.9,402.8,185.6z M423.2,185.8c0-5.6-2.8-11.2-8.9-11.2c-5.6,0-8.9,5.1-8.9,11.2c0,6.4,3.4,11.2,8.9,11.2
		C420.2,197.1,423.2,191.6,423.2,185.8z"/>
</g>
</svg>
